<mxfile host="app.diagrams.net" modified="2024-02-06T13:03:01.298Z" agent="Mozilla/5.0 (Windows NT 10.0; Win64; x64) AppleWebKit/537.36 (KHTML, like Gecko) Chrome/120.0.0.0 Safari/537.36" etag="0uoFqb2aK4M_GWKwVaJT" version="23.1.1" type="device">
  <diagram name="Página-1" id="Dmy0P4iwiHnI0HDdGzSV">
    <mxGraphModel dx="1707" dy="1595" grid="1" gridSize="10" guides="1" tooltips="1" connect="1" arrows="1" fold="1" page="1" pageScale="1" pageWidth="827" pageHeight="1169" math="0" shadow="0">
      <root>
        <mxCell id="0" />
        <mxCell id="1" parent="0" />
        <mxCell id="HYgALRt1ARZ44v55kFTN-9" value="" style="edgeStyle=orthogonalEdgeStyle;rounded=0;orthogonalLoop=1;jettySize=auto;html=1;" edge="1" parent="1" source="HYgALRt1ARZ44v55kFTN-1" target="HYgALRt1ARZ44v55kFTN-8">
          <mxGeometry relative="1" as="geometry" />
        </mxCell>
        <mxCell id="HYgALRt1ARZ44v55kFTN-46" style="edgeStyle=orthogonalEdgeStyle;rounded=0;orthogonalLoop=1;jettySize=auto;html=1;entryX=0;entryY=0.5;entryDx=0;entryDy=0;" edge="1" parent="1" source="HYgALRt1ARZ44v55kFTN-1" target="HYgALRt1ARZ44v55kFTN-45">
          <mxGeometry relative="1" as="geometry">
            <Array as="points">
              <mxPoint x="70" y="80" />
              <mxPoint x="70" y="190" />
            </Array>
          </mxGeometry>
        </mxCell>
        <mxCell id="HYgALRt1ARZ44v55kFTN-47" style="edgeStyle=orthogonalEdgeStyle;rounded=0;orthogonalLoop=1;jettySize=auto;html=1;exitX=1;exitY=0.3333333333333333;exitDx=0;exitDy=0;exitPerimeter=0;entryX=0;entryY=0.5;entryDx=0;entryDy=0;" edge="1" parent="1" source="HYgALRt1ARZ44v55kFTN-1" target="HYgALRt1ARZ44v55kFTN-10">
          <mxGeometry relative="1" as="geometry" />
        </mxCell>
        <mxCell id="HYgALRt1ARZ44v55kFTN-1" value="Cliente" style="shape=umlActor;verticalLabelPosition=bottom;verticalAlign=top;html=1;outlineConnect=0;" vertex="1" parent="1">
          <mxGeometry x="15" y="50" width="30" height="60" as="geometry" />
        </mxCell>
        <mxCell id="HYgALRt1ARZ44v55kFTN-52" style="edgeStyle=orthogonalEdgeStyle;rounded=0;orthogonalLoop=1;jettySize=auto;html=1;exitX=0.5;exitY=0.5;exitDx=0;exitDy=0;exitPerimeter=0;entryX=0;entryY=0.5;entryDx=0;entryDy=0;" edge="1" parent="1" source="HYgALRt1ARZ44v55kFTN-2" target="HYgALRt1ARZ44v55kFTN-41">
          <mxGeometry relative="1" as="geometry" />
        </mxCell>
        <mxCell id="HYgALRt1ARZ44v55kFTN-53" style="edgeStyle=orthogonalEdgeStyle;rounded=0;orthogonalLoop=1;jettySize=auto;html=1;exitX=1;exitY=0.3333333333333333;exitDx=0;exitDy=0;exitPerimeter=0;entryX=0;entryY=0.5;entryDx=0;entryDy=0;" edge="1" parent="1" source="HYgALRt1ARZ44v55kFTN-2" target="HYgALRt1ARZ44v55kFTN-14">
          <mxGeometry relative="1" as="geometry">
            <Array as="points">
              <mxPoint x="60" y="440" />
              <mxPoint x="60" y="350" />
            </Array>
          </mxGeometry>
        </mxCell>
        <mxCell id="HYgALRt1ARZ44v55kFTN-54" style="edgeStyle=orthogonalEdgeStyle;rounded=0;orthogonalLoop=1;jettySize=auto;html=1;exitX=0.5;exitY=0.5;exitDx=0;exitDy=0;exitPerimeter=0;entryX=0;entryY=0.5;entryDx=0;entryDy=0;" edge="1" parent="1" source="HYgALRt1ARZ44v55kFTN-2" target="HYgALRt1ARZ44v55kFTN-55">
          <mxGeometry relative="1" as="geometry">
            <mxPoint x="60" y="570" as="targetPoint" />
          </mxGeometry>
        </mxCell>
        <mxCell id="HYgALRt1ARZ44v55kFTN-61" style="edgeStyle=orthogonalEdgeStyle;rounded=0;orthogonalLoop=1;jettySize=auto;html=1;exitX=0.5;exitY=0.5;exitDx=0;exitDy=0;exitPerimeter=0;entryX=0;entryY=0.5;entryDx=0;entryDy=0;" edge="1" parent="1" source="HYgALRt1ARZ44v55kFTN-2" target="HYgALRt1ARZ44v55kFTN-60">
          <mxGeometry relative="1" as="geometry" />
        </mxCell>
        <mxCell id="HYgALRt1ARZ44v55kFTN-2" value="Profissional" style="shape=umlActor;verticalLabelPosition=bottom;verticalAlign=top;html=1;outlineConnect=0;" vertex="1" parent="1">
          <mxGeometry x="15" y="420" width="30" height="60" as="geometry" />
        </mxCell>
        <mxCell id="HYgALRt1ARZ44v55kFTN-40" style="edgeStyle=orthogonalEdgeStyle;rounded=0;orthogonalLoop=1;jettySize=auto;html=1;exitX=1;exitY=0.5;exitDx=0;exitDy=0;" edge="1" parent="1" source="HYgALRt1ARZ44v55kFTN-8" target="HYgALRt1ARZ44v55kFTN-39">
          <mxGeometry relative="1" as="geometry" />
        </mxCell>
        <mxCell id="HYgALRt1ARZ44v55kFTN-8" value="O cliente poderá se cadastrar no site" style="ellipse;whiteSpace=wrap;html=1;verticalAlign=middle;" vertex="1" parent="1">
          <mxGeometry x="110" y="40" width="105" height="80" as="geometry" />
        </mxCell>
        <mxCell id="HYgALRt1ARZ44v55kFTN-34" style="edgeStyle=orthogonalEdgeStyle;rounded=0;orthogonalLoop=1;jettySize=auto;html=1;exitX=1;exitY=0.5;exitDx=0;exitDy=0;entryX=0;entryY=0.5;entryDx=0;entryDy=0;" edge="1" parent="1" source="HYgALRt1ARZ44v55kFTN-10" target="HYgALRt1ARZ44v55kFTN-16">
          <mxGeometry relative="1" as="geometry" />
        </mxCell>
        <mxCell id="HYgALRt1ARZ44v55kFTN-10" value="O cliente poderá ver uma lista de serviços do profissional" style="ellipse;whiteSpace=wrap;html=1;verticalAlign=middle;" vertex="1" parent="1">
          <mxGeometry x="90" y="-60" width="130" height="80" as="geometry" />
        </mxCell>
        <mxCell id="HYgALRt1ARZ44v55kFTN-12" value="O profissional poderá fazer login no site" style="ellipse;whiteSpace=wrap;html=1;verticalAlign=middle;" vertex="1" parent="1">
          <mxGeometry x="255" y="410" width="105" height="80" as="geometry" />
        </mxCell>
        <mxCell id="HYgALRt1ARZ44v55kFTN-27" value="" style="edgeStyle=orthogonalEdgeStyle;rounded=0;orthogonalLoop=1;jettySize=auto;html=1;" edge="1" parent="1" source="HYgALRt1ARZ44v55kFTN-14" target="HYgALRt1ARZ44v55kFTN-26">
          <mxGeometry relative="1" as="geometry" />
        </mxCell>
        <mxCell id="HYgALRt1ARZ44v55kFTN-14" value="O profissional poderá adicionar um serviço ao seu perfil" style="ellipse;whiteSpace=wrap;html=1;verticalAlign=middle;" vertex="1" parent="1">
          <mxGeometry x="82.5" y="310" width="140" height="80" as="geometry" />
        </mxCell>
        <mxCell id="HYgALRt1ARZ44v55kFTN-36" style="edgeStyle=orthogonalEdgeStyle;rounded=0;orthogonalLoop=1;jettySize=auto;html=1;exitX=1;exitY=0.5;exitDx=0;exitDy=0;entryX=0;entryY=0.5;entryDx=0;entryDy=0;" edge="1" parent="1" source="HYgALRt1ARZ44v55kFTN-16" target="HYgALRt1ARZ44v55kFTN-35">
          <mxGeometry relative="1" as="geometry" />
        </mxCell>
        <mxCell id="HYgALRt1ARZ44v55kFTN-16" value="O cliente poderá agendar um serviço" style="ellipse;whiteSpace=wrap;html=1;verticalAlign=middle;" vertex="1" parent="1">
          <mxGeometry x="245" y="-60" width="105" height="80" as="geometry" />
        </mxCell>
        <mxCell id="HYgALRt1ARZ44v55kFTN-38" style="edgeStyle=orthogonalEdgeStyle;rounded=0;orthogonalLoop=1;jettySize=auto;html=1;exitX=1;exitY=0.5;exitDx=0;exitDy=0;entryX=0;entryY=0.5;entryDx=0;entryDy=0;" edge="1" parent="1" source="HYgALRt1ARZ44v55kFTN-18" target="HYgALRt1ARZ44v55kFTN-22">
          <mxGeometry relative="1" as="geometry" />
        </mxCell>
        <mxCell id="HYgALRt1ARZ44v55kFTN-18" value="O cliente poderá ver seus agendamentos" style="ellipse;whiteSpace=wrap;html=1;verticalAlign=middle;" vertex="1" parent="1">
          <mxGeometry x="490" y="-60" width="106" height="80" as="geometry" />
        </mxCell>
        <mxCell id="HYgALRt1ARZ44v55kFTN-22" value="&lt;font style=&quot;font-size: 12px;&quot;&gt;O cliente poderá &lt;br&gt;avaliar um serviço prestado a ele&lt;/font&gt;" style="ellipse;whiteSpace=wrap;html=1;verticalAlign=middle;" vertex="1" parent="1">
          <mxGeometry x="615" y="-60" width="110" height="80" as="geometry" />
        </mxCell>
        <mxCell id="HYgALRt1ARZ44v55kFTN-31" style="edgeStyle=orthogonalEdgeStyle;rounded=0;orthogonalLoop=1;jettySize=auto;html=1;exitX=1;exitY=0.5;exitDx=0;exitDy=0;entryX=0;entryY=0.5;entryDx=0;entryDy=0;" edge="1" parent="1" source="HYgALRt1ARZ44v55kFTN-26" target="HYgALRt1ARZ44v55kFTN-28">
          <mxGeometry relative="1" as="geometry" />
        </mxCell>
        <mxCell id="HYgALRt1ARZ44v55kFTN-26" value="O profissional poderá &lt;br&gt;ver seus serviços adicionados" style="ellipse;whiteSpace=wrap;html=1;verticalAlign=middle;" vertex="1" parent="1">
          <mxGeometry x="255" y="310" width="130" height="80" as="geometry" />
        </mxCell>
        <mxCell id="HYgALRt1ARZ44v55kFTN-33" value="" style="edgeStyle=orthogonalEdgeStyle;rounded=0;orthogonalLoop=1;jettySize=auto;html=1;" edge="1" parent="1" source="HYgALRt1ARZ44v55kFTN-28" target="HYgALRt1ARZ44v55kFTN-32">
          <mxGeometry relative="1" as="geometry" />
        </mxCell>
        <mxCell id="HYgALRt1ARZ44v55kFTN-28" value="O profissional poderá editar um serviço adicionado" style="ellipse;whiteSpace=wrap;html=1;verticalAlign=middle;" vertex="1" parent="1">
          <mxGeometry x="415" y="310" width="115" height="80" as="geometry" />
        </mxCell>
        <mxCell id="HYgALRt1ARZ44v55kFTN-44" value="" style="edgeStyle=orthogonalEdgeStyle;rounded=0;orthogonalLoop=1;jettySize=auto;html=1;" edge="1" parent="1" source="HYgALRt1ARZ44v55kFTN-32" target="HYgALRt1ARZ44v55kFTN-43">
          <mxGeometry relative="1" as="geometry" />
        </mxCell>
        <mxCell id="HYgALRt1ARZ44v55kFTN-32" value="O profissional poderá excluir um serviço adicionado" style="ellipse;whiteSpace=wrap;html=1;verticalAlign=middle;" vertex="1" parent="1">
          <mxGeometry x="555" y="310" width="115" height="80" as="geometry" />
        </mxCell>
        <mxCell id="HYgALRt1ARZ44v55kFTN-37" style="edgeStyle=orthogonalEdgeStyle;rounded=0;orthogonalLoop=1;jettySize=auto;html=1;exitX=1;exitY=0.5;exitDx=0;exitDy=0;entryX=0;entryY=0.5;entryDx=0;entryDy=0;" edge="1" parent="1" source="HYgALRt1ARZ44v55kFTN-35" target="HYgALRt1ARZ44v55kFTN-18">
          <mxGeometry relative="1" as="geometry" />
        </mxCell>
        <mxCell id="HYgALRt1ARZ44v55kFTN-35" value="O cliente poderá cancelar um agendamento" style="ellipse;whiteSpace=wrap;html=1;verticalAlign=middle;" vertex="1" parent="1">
          <mxGeometry x="370" y="-60" width="100" height="80" as="geometry" />
        </mxCell>
        <mxCell id="HYgALRt1ARZ44v55kFTN-39" value="O cliente poderá fazer login no site" style="ellipse;whiteSpace=wrap;html=1;verticalAlign=middle;" vertex="1" parent="1">
          <mxGeometry x="240" y="40" width="105" height="80" as="geometry" />
        </mxCell>
        <mxCell id="HYgALRt1ARZ44v55kFTN-42" style="edgeStyle=orthogonalEdgeStyle;rounded=0;orthogonalLoop=1;jettySize=auto;html=1;exitX=1;exitY=0.5;exitDx=0;exitDy=0;entryX=0;entryY=0.5;entryDx=0;entryDy=0;" edge="1" parent="1" source="HYgALRt1ARZ44v55kFTN-41" target="HYgALRt1ARZ44v55kFTN-12">
          <mxGeometry relative="1" as="geometry" />
        </mxCell>
        <mxCell id="HYgALRt1ARZ44v55kFTN-41" value="O profissional&lt;br&gt;poderá se cadastrar no site" style="ellipse;whiteSpace=wrap;html=1;verticalAlign=middle;" vertex="1" parent="1">
          <mxGeometry x="90" y="410" width="105" height="80" as="geometry" />
        </mxCell>
        <mxCell id="HYgALRt1ARZ44v55kFTN-43" value="O profissional poderá ver as avaliações dos seus serviços" style="ellipse;whiteSpace=wrap;html=1;verticalAlign=middle;" vertex="1" parent="1">
          <mxGeometry x="700" y="310" width="115" height="80" as="geometry" />
        </mxCell>
        <mxCell id="HYgALRt1ARZ44v55kFTN-45" value="" style="ellipse;whiteSpace=wrap;html=1;verticalAlign=middle;" vertex="1" parent="1">
          <mxGeometry x="102.5" y="150" width="105" height="80" as="geometry" />
        </mxCell>
        <mxCell id="HYgALRt1ARZ44v55kFTN-57" style="edgeStyle=orthogonalEdgeStyle;rounded=0;orthogonalLoop=1;jettySize=auto;html=1;exitX=1;exitY=0.5;exitDx=0;exitDy=0;entryX=0;entryY=0.5;entryDx=0;entryDy=0;" edge="1" parent="1" source="HYgALRt1ARZ44v55kFTN-55" target="HYgALRt1ARZ44v55kFTN-56">
          <mxGeometry relative="1" as="geometry" />
        </mxCell>
        <mxCell id="HYgALRt1ARZ44v55kFTN-55" value="O profissional&lt;br&gt;poderá cadastrar um estoque" style="ellipse;whiteSpace=wrap;html=1;verticalAlign=middle;" vertex="1" parent="1">
          <mxGeometry x="90" y="510" width="105" height="80" as="geometry" />
        </mxCell>
        <mxCell id="HYgALRt1ARZ44v55kFTN-59" value="" style="edgeStyle=orthogonalEdgeStyle;rounded=0;orthogonalLoop=1;jettySize=auto;html=1;" edge="1" parent="1" source="HYgALRt1ARZ44v55kFTN-56" target="HYgALRt1ARZ44v55kFTN-58">
          <mxGeometry relative="1" as="geometry" />
        </mxCell>
        <mxCell id="HYgALRt1ARZ44v55kFTN-56" value="O profissional&lt;br&gt;poderá cadastrar um ou mais produtos para o estoque" style="ellipse;whiteSpace=wrap;html=1;verticalAlign=middle;" vertex="1" parent="1">
          <mxGeometry x="240" y="510" width="140" height="80" as="geometry" />
        </mxCell>
        <mxCell id="HYgALRt1ARZ44v55kFTN-58" value="O profissional&lt;br&gt;poderá excluir do estoque um produto" style="ellipse;whiteSpace=wrap;html=1;verticalAlign=middle;" vertex="1" parent="1">
          <mxGeometry x="400" y="510" width="140" height="80" as="geometry" />
        </mxCell>
        <mxCell id="HYgALRt1ARZ44v55kFTN-63" value="" style="edgeStyle=orthogonalEdgeStyle;rounded=0;orthogonalLoop=1;jettySize=auto;html=1;" edge="1" parent="1" source="HYgALRt1ARZ44v55kFTN-60" target="HYgALRt1ARZ44v55kFTN-62">
          <mxGeometry relative="1" as="geometry" />
        </mxCell>
        <mxCell id="HYgALRt1ARZ44v55kFTN-60" value="O profissional&lt;br&gt;poderá ver seu calendário de atendimentos" style="ellipse;whiteSpace=wrap;html=1;verticalAlign=middle;" vertex="1" parent="1">
          <mxGeometry x="90" y="610" width="130" height="80" as="geometry" />
        </mxCell>
        <mxCell id="HYgALRt1ARZ44v55kFTN-62" value="O profissional&lt;br&gt;poderá identificar quais dias trabalha e quais não" style="ellipse;whiteSpace=wrap;html=1;verticalAlign=middle;" vertex="1" parent="1">
          <mxGeometry x="245" y="610" width="130" height="80" as="geometry" />
        </mxCell>
      </root>
    </mxGraphModel>
  </diagram>
</mxfile>
